# Blender 4.0.2
# www.blender.org
mtllib nucleus.mtl
o Sphere
v 0.000000 0.000000 -0.400000
v 0.000000 -0.282843 -0.282843
v 0.282843 0.282843 0.000000
v 0.400000 -0.000000 0.000000
v 0.282843 -0.282843 0.000000
v -0.000000 0.282843 0.282843
v -0.000000 -0.000000 0.400000
v -0.000000 -0.282843 0.282843
v 0.000000 -0.400000 0.000000
v 0.000000 0.400000 0.000000
v -0.282843 0.282843 -0.000000
v -0.400000 -0.000000 -0.000000
v -0.282843 -0.282843 -0.000000
v 0.000000 0.282842 -0.282843
vn 0.6786 0.2811 -0.6786
vn 0.6786 -0.2811 -0.6786
vn 0.3574 0.8629 -0.3574
vn 0.3574 -0.8629 -0.3574
vn 0.6786 -0.2811 0.6786
vn 0.3574 0.8629 0.3574
vn 0.3574 -0.8629 0.3574
vn 0.6786 0.2811 0.6786
vn -0.6786 -0.2811 0.6786
vn -0.3574 0.8629 0.3574
vn -0.3574 -0.8629 0.3574
vn -0.6786 0.2811 0.6786
vn -0.6786 0.2811 -0.6786
vn -0.6786 -0.2811 -0.6786
vn -0.3574 0.8629 -0.3574
vn -0.3574 -0.8629 -0.3574
vt 0.750000 0.500000
vt 0.750000 0.750000
vt 0.500000 0.750000
vt 0.500000 0.500000
vt 0.750000 0.250000
vt 0.500000 0.250000
vt 0.625000 1.000000
vt 0.625000 0.000000
vt 0.250000 0.500000
vt 0.250000 0.250000
vt 0.375000 1.000000
vt 0.250000 0.750000
vt 0.375000 0.000000
vt 0.000000 0.500000
vt 0.000000 0.250000
vt 0.125000 1.000000
vt 0.000000 0.750000
vt 0.125000 0.000000
vt 1.000000 0.500000
vt 1.000000 0.750000
vt 1.000000 0.250000
vt 0.875000 1.000000
vt 0.875000 0.000000
s 0
f 1/1/1 14/2/1 3/3/1 4/4/1
f 2/5/2 1/1/2 4/4/2 5/6/2
f 14/2/3 10/7/3 3/3/3
f 9/8/4 2/5/4 5/6/4
f 5/6/5 4/4/5 7/9/5 8/10/5
f 3/3/6 10/11/6 6/12/6
f 9/13/7 5/6/7 8/10/7
f 4/4/8 3/3/8 6/12/8 7/9/8
f 8/10/9 7/9/9 12/14/9 13/15/9
f 6/12/10 10/16/10 11/17/10
f 9/18/11 8/10/11 13/15/11
f 7/9/12 6/12/12 11/17/12 12/14/12
f 12/19/13 11/20/13 14/2/13 1/1/13
f 13/21/14 12/19/14 1/1/14 2/5/14
f 11/20/15 10/22/15 14/2/15
f 9/23/16 13/21/16 2/5/16
